<svg fill="#000000" xmlns="http://www.w3.org/2000/svg" viewBox="0 0 24 24" width="24px" height="24px"><path d="M 12 2 C 7.2520184 2 3.267377 5.3252846 2.2558594 9.7792969 A 1.0002388 1.0002388 0 0 0 4.2070312 10.220703 C 5.0155136 6.6607155 8.1839816 4 12 4 C 15.816018 4 18.984486 6.6607155 19.792969 10.220703 A 1.0002389 1.0002389 0 0 0 21.744141 9.7792969 C 20.732623 5.3252846 16.747982 2 12 2 z M 3.1894531 12.986328 A 1.0001 1.0001 0 0 0 2.2558594 14.220703 C 2.5020432 15.305694 2.9271657 16.320787 3.4902344 17.236328 A 1.0001 1.0001 0 1 0 5.1933594 16.189453 C 4.740428 15.452994 4.4028474 14.642306 4.2070312 13.779297 A 1.0001 1.0001 0 0 0 3.1894531 12.986328 z M 18.523438 17.148438 A 1.0001 1.0001 0 0 0 17.755859 17.496094 C 17.623808 17.644932 17.525737 17.757821 17.457031 17.822266 A 1.0003976 1.0003976 0 1 0 18.826172 19.28125 C 19.015466 19.103695 19.148005 18.941381 19.251953 18.824219 A 1.0001 1.0001 0 0 0 18.523438 17.148438 z M 7.2441406 18.650391 A 1.0001 1.0001 0 0 0 6.7617188 20.507812 C 7.468724 20.945055 8.2303063 21.282831 9.0195312 21.53125 A 1.0003895 1.0003895 0 1 0 9.6210938 19.623047 C 8.9743186 19.419466 8.3654478 19.147399 7.8144531 18.806641 A 1.0001 1.0001 0 0 0 7.2441406 18.650391 z M 14.648438 19.580078 A 1.0001 1.0001 0 0 0 14.384766 19.628906 C 14.011476 19.745221 13.632155 19.835974 13.248047 19.896484 A 1.000405 1.000405 0 0 0 13.558594 21.873047 C 14.050485 21.795557 14.523806 21.678794 14.978516 21.537109 A 1.0001 1.0001 0 0 0 14.648438 19.580078 z"/></svg>